<?xml version="1.0" encoding="UTF-8" standalone="no"?>

<svg
   fill="#000000"
   width="512"
   height="512"
   viewBox="-2.4 -2.4 28.8 28.8"
   role="img"
   version="1.1"
   id="svg1"
   xmlns="http://www.w3.org/2000/svg"
   xmlns:svg="http://www.w3.org/2000/svg">
  <defs
     id="defs1" />
  <g
     id="Zigbee_logo">
    <title
       id="title1">Zigbee logo</title>
    <circle
       style="fill:#ffffff;fill-opacity:1;stroke:#ffffff;stroke-width:0.168553;stroke-dasharray:none;stroke-opacity:1"
       id="path2"
       cx="12"
       cy="12"
       r="11.976676" />
    <path
       d="M 11.988,0 A 11.85,11.85 0 0 0 3.371,3.696 C 10.391,2.821 14.772,3.113 16.66,3.356 20.412,3.939 20.218,6.76 20.218,6.76 L 8.237,19.112 c 2.299,0.22 6.897,0.366 13.796,-0.631 a 11.86,11.86 0 0 0 1.912,-6.469 C 23.945,5.374 18.595,0 11.988,0 Z M 12.22,4.31 C 9.769,4.296 6.448,4.456 2.257,5.033 0.854,7.003 0.055,9.41 0.055,12.012 0.055,18.626 5.38,24 11.988,24 c 3.63,0 6.85,-1.63 9.053,-4.182 C 13.755,20.766 9.228,20.449 7.291,20.206 3.516,19.646 3.734,16.802 3.734,16.802 L 15.691,4.474 A 38.635,38.635 0 0 0 12.22,4.311 Z"
       id="path1"
       style="fill:#000000;fill-opacity:1;stroke:#ffffff;stroke-width:0.16875;stroke-dasharray:none;stroke-opacity:1" />
  </g>
</svg>
